<?xml version="1.0" encoding="UTF-8"?>
<svg width="13px" height="13px" viewBox="0 0 13 13" version="1.1" xmlns="http://www.w3.org/2000/svg" xmlns:xlink="http://www.w3.org/1999/xlink">
    <!-- Generator: Sketch 60 (88103) - https://sketch.com -->
    <title>gougou</title>
    <desc>Created with Sketch.</desc>
    <g id="组件" stroke="none" stroke-width="1" fill="none" fill-rule="evenodd">
        <g id="形状结合">
            <polygon id="矩形" fill="#0F9BFD" points="13 -3.60822483e-16 13 13 2.27318164e-13 13"></polygon>
            <path d="M11.3188733,7.13184641 L11.2903175,7.16814097 L8.09530304,10.7692255 L6.71158234,8.90664872 L6.68302655,8.87035416 C6.53286542,8.69804484 6.29861168,8.69057351 6.14107096,8.85306893 C5.98353024,9.01556435 5.95392561,9.29519246 6.07257943,9.5 L6.09790248,9.5392111 L7.79142645,11.8366745 L7.82186799,11.8736171 L7.84530528,11.8972734 L7.87951833,11.9264387 L7.91346199,11.9491228 L7.95063838,11.9685663 L7.98512084,11.9821768 L8.01933389,11.9918985 L8.0557021,11.9977316 L8.09395606,12 L8.13140186,11.9980556 L8.16076581,11.9931948 L8.1885134,11.9867136 L8.2165304,11.9769918 L8.2534374,11.9607889 L8.28334015,11.9432897 L8.31836138,11.9183372 L8.33991292,11.8995418 L8.36200323,11.8775059 L8.39325296,11.839915 L11.9013034,7.80459205 L11.9266265,7.76570502 C12.0457552,7.56157499 12.0171224,7.28211113 11.8603555,7.11888407 C11.7038017,6.95554086 11.4699007,6.96114013 11.3188733,7.13184641 Z" id="路径" fill="#FFFFFF"></path>
        </g>
    </g>
</svg>